<svg width="50" height="58" viewBox="0 0 50 58" fill="none" xmlns="http://www.w3.org/2000/svg">
<g clip-path="url(#clip0_64_115)">
<path d="M50 8.92857V14.2857C50 19.2187 38.8058 23.2143 25 23.2143C11.1942 23.2143 0 19.2187 0 14.2857V8.92857C0 3.99554 11.1942 0 25 0C38.8058 0 50 3.99554 50 8.92857ZM43.8839 23.9621C46.2054 23.1362 48.3371 22.0759 50 20.7701V32.1429C50 37.0759 38.8058 41.0714 25 41.0714C11.1942 41.0714 0 37.0759 0 32.1429V20.7701C1.66295 22.0871 3.79464 23.1362 6.11607 23.9621C11.1272 25.7478 17.8013 26.7857 25 26.7857C32.1987 26.7857 38.8728 25.7478 43.8839 23.9621ZM0 38.6272C1.66295 39.9442 3.79464 40.9933 6.11607 41.8192C11.1272 43.6049 17.8013 44.6429 25 44.6429C32.1987 44.6429 38.8728 43.6049 43.8839 41.8192C46.2054 40.9933 48.3371 39.933 50 38.6272V48.2143C50 53.1473 38.8058 57.1429 25 57.1429C11.1942 57.1429 0 53.1473 0 48.2143V38.6272Z" fill="#9BA4ED"/>
</g>
<defs>
<clipPath id="clip0_64_115">
<rect width="50" height="57.1429" fill="white"/>
</clipPath>
</defs>
</svg>
