<svg width="51" height="49" viewBox="0 0 51 49" fill="none" xmlns="http://www.w3.org/2000/svg">
<path d="M16.9237 39.254C16.9237 39.4556 16.6919 39.6169 16.3995 39.6169C16.0669 39.6472 15.835 39.4859 15.835 39.254C15.835 39.0524 16.0669 38.8911 16.3592 38.8911C16.6616 38.8609 16.9237 39.0222 16.9237 39.254ZM13.7887 38.8004C13.7181 39.002 13.9197 39.2339 14.2221 39.2944C14.4842 39.3952 14.7866 39.2944 14.8471 39.0927C14.9076 38.8911 14.7161 38.6593 14.4137 38.5686C14.1516 38.498 13.8592 38.5988 13.7887 38.8004ZM18.2443 38.629C17.952 38.6996 17.7504 38.8911 17.7806 39.123C17.8108 39.3246 18.0729 39.4556 18.3754 39.3851C18.6677 39.3145 18.8693 39.123 18.8391 38.9214C18.8088 38.7298 18.5366 38.5988 18.2443 38.629ZM24.8774 0C10.8955 0 0.199951 10.6149 0.199951 24.5968C0.199951 35.7762 7.23624 45.3427 17.2866 48.7097C18.577 48.9415 19.0306 48.1452 19.0306 47.4899C19.0306 46.8649 19.0004 43.4173 19.0004 41.3004C19.0004 41.3004 11.9439 42.8125 10.462 38.2964C10.462 38.2964 9.31285 35.3629 7.65963 34.6069C7.65963 34.6069 5.35116 33.0242 7.82092 33.0544C7.82092 33.0544 10.331 33.256 11.712 35.6552C13.9197 39.5464 17.6193 38.4274 19.0608 37.7621C19.2927 36.1492 19.9479 35.0302 20.6737 34.3649C15.0387 33.7399 9.35318 32.9234 9.35318 23.2258C9.35318 20.4536 10.1193 19.0625 11.7322 17.2883C11.4701 16.6331 10.6133 13.9315 11.9943 10.4435C14.1012 9.78831 18.95 13.1653 18.95 13.1653C20.9661 12.6008 23.1334 12.3085 25.2806 12.3085C27.4278 12.3085 29.5951 12.6008 31.6112 13.1653C31.6112 13.1653 36.46 9.77823 38.5669 10.4435C39.9479 13.9415 39.0911 16.6331 38.829 17.2883C40.4419 19.0726 41.4298 20.4637 41.4298 23.2258C41.4298 32.9536 35.4923 33.7298 29.8572 34.3649C30.7846 35.1613 31.5709 36.6734 31.5709 39.0423C31.5709 42.4395 31.5407 46.6431 31.5407 47.4698C31.5407 48.125 32.0044 48.9214 33.2846 48.6895C43.3653 45.3427 50.2 35.7762 50.2 24.5968C50.2 10.6149 38.8592 0 24.8774 0ZM9.99834 34.7681C9.86729 34.869 9.89753 35.1008 10.0689 35.2923C10.2302 35.4536 10.462 35.5242 10.5931 35.3931C10.7241 35.2923 10.6939 35.0605 10.5225 34.8689C10.3612 34.7077 10.1294 34.6371 9.99834 34.7681ZM8.90963 33.9516C8.83906 34.0827 8.93987 34.244 9.14148 34.3448C9.30277 34.4456 9.50439 34.4153 9.57495 34.2742C9.64552 34.1431 9.54471 33.9819 9.3431 33.8811C9.14148 33.8206 8.98019 33.8508 8.90963 33.9516ZM12.1758 37.5403C12.0145 37.6714 12.075 37.9738 12.3068 38.1653C12.5387 38.3972 12.831 38.4274 12.962 38.2661C13.0931 38.1351 13.0326 37.8327 12.831 37.6411C12.6092 37.4093 12.3068 37.379 12.1758 37.5403ZM11.0266 36.0585C10.8653 36.1593 10.8653 36.4214 11.0266 36.6532C11.1879 36.8851 11.46 36.9859 11.5911 36.8851C11.7524 36.754 11.7524 36.4919 11.5911 36.2601C11.45 36.0282 11.1879 35.9274 11.0266 36.0585Z" fill="white"/>
</svg>
