<svg width="36" height="46" viewBox="0 0 36 46" fill="none" xmlns="http://www.w3.org/2000/svg">
<path d="M6 34.5C5.575 34.5 5.219 34.316 4.932 33.948C4.644 33.5813 4.5 33.1264 4.5 32.5833C4.5 32.0403 4.644 31.5854 4.932 31.2187C5.219 30.8507 5.575 30.6667 6 30.6667H30C30.425 30.6667 30.781 30.8507 31.068 31.2187C31.356 31.5854 31.5 32.0403 31.5 32.5833C31.5 33.1264 31.356 33.5813 31.068 33.948C30.781 34.316 30.425 34.5 30 34.5H6ZM6 24.9167C5.575 24.9167 5.219 24.7327 4.932 24.3647C4.644 23.9979 4.5 23.5431 4.5 23C4.5 22.4569 4.644 22.0014 4.932 21.6334C5.219 21.2667 5.575 21.0833 6 21.0833H30C30.425 21.0833 30.781 21.2667 31.068 21.6334C31.356 22.0014 31.5 22.4569 31.5 23C31.5 23.5431 31.356 23.9979 31.068 24.3647C30.781 24.7327 30.425 24.9167 30 24.9167H6ZM6 15.3333C5.575 15.3333 5.219 15.15 4.932 14.7832C4.644 14.4152 4.5 13.9597 4.5 13.4167C4.5 12.8736 4.644 12.4181 4.932 12.0501C5.219 11.6834 5.575 11.5 6 11.5H30C30.425 11.5 30.781 11.6834 31.068 12.0501C31.356 12.4181 31.5 12.8736 31.5 13.4167C31.5 13.9597 31.356 14.4152 31.068 14.7832C30.781 15.15 30.425 15.3333 30 15.3333H6Z" fill="white"/>
</svg>
