<svg width="40" height="40" viewBox="0 0 40 40" fill="none" xmlns="http://www.w3.org/2000/svg">
<path d="M3.33337 16.6667C3.33337 15.7827 3.68456 14.9348 4.30968 14.3097C4.93481 13.6846 5.78265 13.3334 6.66671 13.3334H33.3334C34.2174 13.3334 35.0653 13.6846 35.6904 14.3097C36.3155 14.9348 36.6667 15.7827 36.6667 16.6667V28.3334C36.6667 29.2174 36.3155 30.0653 35.6904 30.6904C35.0653 31.3155 34.2174 31.6667 33.3334 31.6667H26.8867C26.3111 31.6667 25.7453 31.5177 25.2444 31.2341C24.7435 30.9504 24.3245 30.542 24.0284 30.0484L21.4284 25.715C21.2802 25.4686 21.0708 25.2647 20.8205 25.1232C20.5702 24.9816 20.2876 24.9072 20 24.9072C19.7125 24.9072 19.4299 24.9816 19.1796 25.1232C18.9293 25.2647 18.7199 25.4686 18.5717 25.715L15.9717 30.0484C15.6756 30.542 15.2566 30.9504 14.7557 31.2341C14.2548 31.5177 13.689 31.6667 13.1134 31.6667H6.66671C5.78265 31.6667 4.93481 31.3155 4.30968 30.6904C3.68456 30.0653 3.33337 29.2174 3.33337 28.3334V16.6667Z" stroke="white" stroke-width="2" stroke-linecap="round" stroke-linejoin="round"/>
<path d="M6.355 11.3017C6.96364 10.3889 7.78818 9.64034 8.75545 9.12254C9.72273 8.60474 10.8028 8.33367 11.9 8.33337H28.0967C29.1941 8.33339 30.2746 8.60433 31.2421 9.12214C32.2097 9.63995 33.0345 10.3886 33.6433 11.3017L35 13.3334H5L6.355 11.3017V11.3017Z" stroke="white" stroke-width="2" stroke-linecap="round" stroke-linejoin="round"/>
</svg>
