<svg width="51" height="50" viewBox="0 0 51 50" fill="none" xmlns="http://www.w3.org/2000/svg">
<path d="M46.6285 0H3.76022C1.79593 0 0.199951 1.6183 0.199951 3.60491V46.3951C0.199951 48.3817 1.79593 50 3.76022 50H46.6285C48.5928 50 50.2 48.3817 50.2 46.3951V3.60491C50.2 1.6183 48.5928 0 46.6285 0ZM15.3116 42.8571H7.90084V18.9955H15.3227V42.8571H15.3116ZM11.6062 15.7366C9.22897 15.7366 7.30933 13.8058 7.30933 11.4397C7.30933 9.07366 9.22897 7.14286 11.6062 7.14286C13.9723 7.14286 15.9031 9.07366 15.9031 11.4397C15.9031 13.817 13.9834 15.7366 11.6062 15.7366ZM43.0906 42.8571H35.6799V31.25C35.6799 28.4821 35.6241 24.9219 31.8294 24.9219C27.9678 24.9219 27.3763 27.9353 27.3763 31.0491V42.8571H19.9656V18.9955H27.075V22.2545H27.1754C28.1687 20.3795 30.5906 18.404 34.1955 18.404C41.6955 18.404 43.0906 23.3482 43.0906 29.7768V42.8571Z" fill="white"/>
</svg>
