<svg width="50" height="50" viewBox="0 0 50 50" fill="none" xmlns="http://www.w3.org/2000/svg">
<path d="M17.8571 5.35714C17.8571 2.39955 20.2567 0 23.2143 0H26.7857C29.7433 0 32.1429 2.39955 32.1429 5.35714V44.6429C32.1429 47.6004 29.7433 50 26.7857 50H23.2143C20.2567 50 17.8571 47.6004 17.8571 44.6429V5.35714ZM0 26.7857C0 23.8281 2.39955 21.4286 5.35714 21.4286H8.92857C11.8862 21.4286 14.2857 23.8281 14.2857 26.7857V44.6429C14.2857 47.6004 11.8862 50 8.92857 50H5.35714C2.39955 50 0 47.6004 0 44.6429V26.7857ZM41.0714 7.14286H44.6429C47.6004 7.14286 50 9.54241 50 12.5V44.6429C50 47.6004 47.6004 50 44.6429 50H41.0714C38.1138 50 35.7143 47.6004 35.7143 44.6429V12.5C35.7143 9.54241 38.1138 7.14286 41.0714 7.14286Z" fill="#9BA4ED"/>
</svg>
