<svg width="51" height="50" viewBox="0 0 51 50" fill="none" xmlns="http://www.w3.org/2000/svg">
<path d="M42.7112 7.26562C38.0348 2.57812 31.8072 0 25.1889 0C11.5281 0 0.412066 11.1161 0.412066 24.7768C0.412066 29.1406 1.55046 33.404 3.71564 37.1652L0.200012 50L13.3362 46.5513C16.9522 48.5268 21.0259 49.5647 25.1777 49.5647H25.1889C38.8384 49.5647 50.2 38.4487 50.2 24.7879C50.2 18.1696 47.3875 11.9531 42.7112 7.26562ZM25.1889 45.3906C21.4835 45.3906 17.8563 44.3973 14.6978 42.5223L13.95 42.0759L6.15983 44.1183L8.23573 36.5179L7.74465 35.7366C5.67992 32.4554 4.59733 28.6719 4.59733 24.7768C4.59733 13.4263 13.8384 4.18527 25.2 4.18527C30.7022 4.18527 35.8697 6.32812 39.7536 10.2232C43.6375 14.1183 46.0259 19.2857 46.0147 24.7879C46.0147 36.1496 36.5393 45.3906 25.1889 45.3906ZM36.4835 29.9665C35.8697 29.654 32.8228 28.1585 32.2536 27.9576C31.6844 27.7455 31.2714 27.6451 30.8585 28.2701C30.4455 28.8951 29.2625 30.279 28.8942 30.7031C28.5371 31.1161 28.1688 31.1719 27.5549 30.8594C23.9165 29.0402 21.5281 27.6116 19.1286 23.4933C18.4924 22.3996 19.7647 22.4777 20.9478 20.1116C21.1487 19.6987 21.0482 19.3415 20.892 19.029C20.7357 18.7165 19.4969 15.6696 18.9835 14.4308C18.4813 13.2254 17.9679 13.3929 17.5884 13.3705C17.2313 13.3482 16.8183 13.3482 16.4054 13.3482C15.9924 13.3482 15.3228 13.5045 14.7536 14.1183C14.1844 14.7433 12.5884 16.2388 12.5884 19.2857C12.5884 22.3326 14.8094 25.279 15.1107 25.692C15.4232 26.1049 19.4746 32.3549 25.6911 35.0446C29.6197 36.7411 31.1598 36.8862 33.1241 36.596C34.3183 36.4174 36.7848 35.1004 37.2982 33.6496C37.8116 32.1987 37.8116 30.9598 37.6554 30.7031C37.5103 30.4241 37.0973 30.2679 36.4835 29.9665Z" fill="white"/>
</svg>
